<svg xmlns="http://www.w3.org/2000/svg" width="800" height="600" viewBox="0 0 800 600">
  <defs>
    <linearGradient id="sky" x1="0" y1="0" x2="0" y2="1">
      <stop offset="0%" stop-color="#87CEEB"/>
      <stop offset="60%" stop-color="#E0F4FF"/>
      <stop offset="100%" stop-color="#C8E6C9"/>
    </linearGradient>
    <linearGradient id="mt1" x1="0" y1="0" x2="0" y2="1">
      <stop offset="0%" stop-color="#78909C"/>
      <stop offset="100%" stop-color="#546E7A"/>
    </linearGradient>
    <linearGradient id="mt2" x1="0" y1="0" x2="0" y2="1">
      <stop offset="0%" stop-color="#90A4AE"/>
      <stop offset="100%" stop-color="#607D8B"/>
    </linearGradient>
    <linearGradient id="grass" x1="0" y1="0" x2="0" y2="1">
      <stop offset="0%" stop-color="#66BB6A"/>
      <stop offset="100%" stop-color="#388E3C"/>
    </linearGradient>
  </defs>
  <rect width="800" height="600" fill="url(#sky)"/>
  <ellipse cx="120" cy="80" rx="60" ry="30" fill="white" opacity="0.8"/>
  <ellipse cx="160" cy="70" rx="80" ry="35" fill="white" opacity="0.9"/>
  <ellipse cx="200" cy="80" rx="55" ry="28" fill="white" opacity="0.8"/>
  <ellipse cx="580" cy="95" rx="70" ry="32" fill="white" opacity="0.7"/>
  <ellipse cx="625" cy="82" rx="90" ry="38" fill="white" opacity="0.85"/>
  <ellipse cx="670" cy="95" rx="60" ry="28" fill="white" opacity="0.7"/>
  <polygon points="100,380 250,200 400,380" fill="url(#mt2)"/>
  <polygon points="200,350 350,150 500,350" fill="url(#mt1)"/>
  <polygon points="350,150 365,148 505,350 490,350" fill="rgba(0,0,0,0.08)"/>
  <polygon points="400,375 520,215 640,375" fill="url(#mt2)"/>
  <rect x="0" y="365" width="800" height="235" fill="url(#grass)"/>
  <ellipse cx="400" cy="365" rx="400" ry="28" fill="#81C784" opacity="0.5"/>
  <circle cx="660" cy="58" r="38" fill="#FFEE58" opacity="0.95"/>
</svg>
