<svg xmlns="http://www.w3.org/2000/svg" width="800" height="600" viewBox="0 0 800 600">
  <defs>
    <linearGradient id="sunset" x1="0" y1="0" x2="0" y2="1">
      <stop offset="0%" stop-color="#1A237E"/>
      <stop offset="35%" stop-color="#7B1FA2"/>
      <stop offset="65%" stop-color="#E65100"/>
      <stop offset="100%" stop-color="#FF8F00"/>
    </linearGradient>
    <linearGradient id="water" x1="0" y1="0" x2="0" y2="1">
      <stop offset="0%" stop-color="#FF8F00" stop-opacity="0.85"/>
      <stop offset="100%" stop-color="#1A237E" stop-opacity="0.95"/>
    </linearGradient>
  </defs>
  <rect width="800" height="600" fill="url(#sunset)"/>
  <circle cx="400" cy="255" r="52" fill="#FFD54F" opacity="0.95"/>
  <circle cx="400" cy="255" r="44" fill="#FFCA28"/>
  <rect x="0" y="335" width="800" height="265" fill="url(#water)"/>
  <rect x="385" y="255" width="30" height="345" fill="#FFD54F" opacity="0.25"/>
  <polygon points="0,335 100,285 200,335" fill="#1A237E" opacity="0.85"/>
  <polygon points="60,335 170,275 280,335" fill="#283593" opacity="0.75"/>
  <polygon points="520,335 630,268 740,335" fill="#1A237E" opacity="0.85"/>
  <polygon points="600,335 710,278 800,335" fill="#283593" opacity="0.75"/>
  <circle cx="130" cy="110" r="2" fill="white" opacity="0.9"/>
  <circle cx="280" cy="75" r="1.5" fill="white" opacity="0.8"/>
  <circle cx="490" cy="95" r="2" fill="white" opacity="0.7"/>
  <circle cx="670" cy="65" r="1.5" fill="white" opacity="0.9"/>
  <circle cx="760" cy="130" r="2" fill="white" opacity="0.6"/>
  <circle cx="50" cy="160" r="1.5" fill="white" opacity="0.7"/>
  <circle cx="370" cy="50" r="1.8" fill="white" opacity="0.8"/>
</svg>
